<svg width="15" height="12" viewBox="0 0 15 12" fill="none" xmlns="http://www.w3.org/2000/svg">
<path id="Vector" d="M7.7672 0.879341C6.63489 0.877433 5.21631 1.23526 3.81683 1.96363C2.41957 2.69199 1.31206 3.64619 0.661939 4.57812C0.0114954 5.50687 -0.164395 6.37201 0.155579 6.98906C0.475871 7.60292 1.28566 7.95597 2.42084 7.95597C3.55601 7.95915 4.97459 7.59974 6.37089 6.87455C7.77038 6.14618 8.87725 5.18881 9.5261 4.26006C10.1781 3.33131 10.3499 2.46617 10.0318 1.84912C9.71058 1.23526 8.90269 0.879341 7.7672 0.879341ZM10.6902 3.11502C10.5789 3.60166 10.3372 4.10102 9.99683 4.58766C9.27801 5.61501 8.10435 6.61692 6.63489 7.38028C5.16542 8.14681 3.6737 8.53167 2.42052 8.53167C1.82892 8.53167 1.28058 8.44261 0.818427 8.25495L1.15526 8.90381C1.47587 9.52085 2.28344 9.87391 3.41925 9.87391C4.55474 9.87391 5.97331 9.51767 7.36962 8.78931C8.7691 8.06412 9.87597 7.10674 10.5248 6.17481C11.1737 5.24606 11.3518 4.38092 11.0305 3.76706L10.6902 3.11502ZM11.6062 3.64937C11.9625 4.49861 11.6762 5.53232 10.9956 6.50242C10.3944 7.36437 9.47521 8.20088 8.33653 8.90063C8.68959 8.9388 9.05854 8.95788 9.43386 8.95788C11.0083 8.95788 12.4332 8.62073 13.4383 8.09592C14.4466 7.57111 15 6.88409 15 6.19071C15 5.49733 14.4466 4.81031 13.4383 4.2855C12.9262 4.01833 12.3028 3.79886 11.6062 3.64937ZM15 7.61882C14.6756 7.99732 14.2303 8.33129 13.7055 8.60483C12.5922 9.18371 11.091 9.5304 9.43386 9.5304C8.75956 9.5304 8.11071 9.47314 7.5032 9.365C6.76529 9.73714 6.0242 10.0139 5.31173 10.1952C5.3499 10.2174 5.38807 10.2365 5.42942 10.2588C6.4345 10.7836 7.85944 11.1207 9.43386 11.1207C11.0083 11.1207 12.4332 10.7836 13.4383 10.2588C14.4466 9.73396 15 9.04694 15 8.35356V7.61882Z" fill="white" fill-opacity="0.9"/>
</svg>
