<svg width="17" height="18" viewBox="0 0 17 18" fill="none" xmlns="http://www.w3.org/2000/svg">
<g id="Group">
<path id="Vector" d="M9.7869 7.71342C9.10431 7.03112 8.1787 6.64783 7.21357 6.64783C6.24845 6.64783 5.32283 7.03112 4.64024 7.71342L2.06608 10.2868C1.38348 10.9694 1 11.8952 1 12.8605C1 13.8258 1.38348 14.7516 2.06608 15.4342C2.74868 16.1168 3.67448 16.5003 4.63983 16.5003C5.60517 16.5003 6.53097 16.1168 7.21357 15.4342L8.50024 14.1476" stroke="white" stroke-opacity="0.9" stroke-width="2" stroke-linecap="round" stroke-linejoin="round"/>
<path id="Vector_2" d="M7.21326 10.2867C7.89584 10.969 8.82146 11.3523 9.78659 11.3523C10.7517 11.3523 11.6773 10.969 12.3599 10.2867L14.9341 7.71333C15.6167 7.03073 16.0002 6.10492 16.0002 5.13958C16.0002 4.17424 15.6167 3.24844 14.9341 2.56584C14.2515 1.88324 13.3257 1.49976 12.3603 1.49976C11.395 1.49976 10.4692 1.88324 9.78659 2.56584L8.49992 3.8525" stroke="white" stroke-opacity="0.9" stroke-width="2" stroke-linecap="round" stroke-linejoin="round"/>
</g>
</svg>
