<svg width="15" height="16" viewBox="0 0 15 16" fill="none" xmlns="http://www.w3.org/2000/svg">
<path id="Vector" d="M4.5 0.928589C3.76118 0.928589 3.05263 1.22208 2.5302 1.74451C2.00778 2.26693 1.71429 2.97549 1.71429 3.7143C1.71429 4.45312 2.00778 5.16168 2.5302 5.6841C3.05263 6.20652 3.76118 6.50002 4.5 6.50002C5.23882 6.50002 5.94737 6.20652 6.4698 5.6841C6.99222 5.16168 7.28571 4.45312 7.28571 3.7143C7.28571 2.97549 6.99222 2.26693 6.4698 1.74451C5.94737 1.22208 5.23882 0.928589 4.5 0.928589ZM0 9.07145C0 8.61679 0.180612 8.18075 0.502103 7.85926C0.823593 7.53777 1.25963 7.35716 1.71429 7.35716H7.28571C7.58422 7.35692 7.87761 7.43462 8.13686 7.58259C7.60193 8.02451 7.17138 8.57929 6.87604 9.20716C6.58071 9.83502 6.4279 10.5204 6.42857 11.2143C6.42857 11.5537 6.46457 11.8837 6.53229 12.2026C5.98029 12.3886 5.31086 12.5 4.5 12.5C2.346 12.5 1.18543 11.7114 0.584571 10.8423C0.268135 10.3814 0.0708281 9.84924 0.0102857 9.29345C0.0051638 9.24358 0.00173329 9.19355 0 9.14345V9.07145ZM13.2857 4.35716C13.2857 4.92548 13.0599 5.47053 12.6581 5.87239C12.2562 6.27425 11.7112 6.50002 11.1429 6.50002C10.5745 6.50002 10.0295 6.27425 9.62763 5.87239C9.22576 5.47053 9 4.92548 9 4.35716C9 3.78884 9.22576 3.24379 9.62763 2.84193C10.0295 2.44007 10.5745 2.2143 11.1429 2.2143C11.7112 2.2143 12.2562 2.44007 12.6581 2.84193C13.0599 3.24379 13.2857 3.78884 13.2857 4.35716ZM15 11.2143C15 12.2373 14.5936 13.2184 13.8703 13.9417C13.1469 14.6651 12.1658 15.0714 11.1429 15.0714C10.1199 15.0714 9.1388 14.6651 8.41545 13.9417C7.69209 13.2184 7.28571 12.2373 7.28571 11.2143C7.28571 10.1913 7.69209 9.21025 8.41545 8.48689C9.1388 7.76354 10.1199 7.35716 11.1429 7.35716C12.1658 7.35716 13.1469 7.76354 13.8703 8.48689C14.5936 9.21025 15 10.1913 15 11.2143ZM13.284 10.2646H11.9597L11.5509 8.9523C11.5261 8.86312 11.4728 8.7845 11.3991 8.72848C11.3254 8.67246 11.2354 8.64213 11.1429 8.64213C11.0503 8.64213 10.9603 8.67246 10.8866 8.72848C10.8129 8.7845 10.7596 8.86312 10.7349 8.9523L10.326 10.2646H9C8.58514 10.2646 8.412 10.8192 8.748 11.0737L9.81943 11.8854L9.41057 13.1986C9.282 13.61 9.73457 13.9529 10.0706 13.6983L11.142 12.8866L12.2134 13.6983C12.5494 13.9529 13.002 13.61 12.8734 13.1986L12.4646 11.8854L13.536 11.0737C13.872 10.8192 13.6989 10.2646 13.284 10.2646Z" fill="white" fill-opacity="0.9"/>
</svg>
